#N canvas 865 188 450 300 10;
#X declare -lib mrpeach;
#X obj 143 143 key;
#X floatatom 149 187 5 0 0 0 - - -;
#X obj 154 227 select 97 115 100 102 103 104 106 107 99 118 98 110
;
#X msg 79 289 261;
#X msg 115 314 220;
#X msg 151 338 330;
#X msg 198 364 349;
#X msg 233 388 369;
#X msg 274 406 392;
#X msg 321 420 415;
#X msg 367 410 440;
#X msg 416 391 466;
#X msg 461 376 493;
#X msg 500 352 523;
#X msg 552 329 593;
#X floatatom 144 465 5 0 0 0 - - -;
#X obj 153 498 osc~;
#X obj 161 549 dac~;
#X obj 552 501 import mrpeach;
#X msg 732 430 send /x \$1;
#X msg 880 438 disconnect;
#X msg 1023 504 connect 192.168.1.82 12000;
#X obj 805 550 sendOSC;
#X connect 0 0 1 0;
#X connect 1 0 2 0;
#X connect 1 0 19 0;
#X connect 2 0 3 0;
#X connect 2 1 4 0;
#X connect 2 2 5 0;
#X connect 2 3 6 0;
#X connect 2 4 7 0;
#X connect 2 5 8 0;
#X connect 2 6 9 0;
#X connect 2 7 10 0;
#X connect 2 8 11 0;
#X connect 2 9 12 0;
#X connect 2 10 13 0;
#X connect 2 11 14 0;
#X connect 3 0 15 0;
#X connect 4 0 15 0;
#X connect 5 0 15 0;
#X connect 6 0 15 0;
#X connect 7 0 15 0;
#X connect 8 0 15 0;
#X connect 9 0 15 0;
#X connect 10 0 15 0;
#X connect 11 0 15 0;
#X connect 12 0 15 0;
#X connect 13 0 15 0;
#X connect 14 0 15 0;
#X connect 15 0 16 0;
#X connect 16 0 17 0;
#X connect 16 0 17 1;
#X connect 19 0 22 0;
#X connect 20 0 22 0;
#X connect 21 0 22 0;
